<svg width="2716" height="2642" viewBox="0 0 2716 2642" fill="none" xmlns="http://www.w3.org/2000/svg">
<path d="M2645.42 0C2669.32 20.9164 2693.33 45.6432 2716 68.1781C2661.9 117.033 2612.85 167.706 2560.84 218.514L2303.24 469.239L1476.69 1273.32L2713.26 1272.51L2713.11 1369.02H1476.18L2715.05 2574.02L2645.51 2642C2511.62 2506.97 2366.45 2370.33 2229.48 2237.05L1406.57 1436.28V2182.48L1309.36 2182.69L1309.39 1436.24L622.83 2104.4C440.066 2282.35 252.214 2461.27 72.296 2641.24C65.822 2638.72 10.5791 2585.09 0.220659 2575.77C34.8532 2534.1 99.5792 2477.52 140.472 2438.26L386.93 2198.95L1240.36 1369.02L2.59693 1368.85V1272.28C76.7988 1276.86 194.508 1272.56 271.997 1272.54L890.136 1273.34C1001.15 1273.25 1128.01 1267.91 1237.78 1274.73C1199.93 1229.19 1135.69 1171.21 1091.76 1128.72L841.893 886.318L0 68.1829L68.1982 1.62801C122.563 48.7482 181.082 108.352 232.935 158.919L492.423 411.747L1309.48 1207.02L1309.34 460.639H1406.47L1406.64 1204.7C1605.81 1014.06 1803.72 822.191 2000.36 629.1C2217.01 420.989 2432.04 211.282 2645.42 0Z" fill="black"/>
</svg>
